<svg height="9" width="35" xmlns="http://www.w3.org/2000/svg"><g fill="none" fill-rule="evenodd" opacity=".5"><path d="m0 0h35v9h-35z"/><path d="m3.997 0h1v3h-1zm4.147 1.817.5.866-2.598 1.5-.5-.866zm.5 4.5-.5.866-2.598-1.5.5-.866zm-3.647 2.683h-1v-3h1zm-4.147-1.817-.5-.866 2.598-1.5.5.866zm-.5-4.5.5-.866 2.598 1.5-.5.866zm16.647-2.683h1v3h-1zm4.147 1.817.5.866-2.598 1.5-.5-.866zm.5 4.5-.5.866-2.598-1.5.5-.866zm-3.647 2.683h-1v-3h1zm-4.147-1.817-.5-.866 2.598-1.5.5.866zm-.5-4.5.5-.866 2.598 1.5-.5.866zm16.647-2.683h1v3h-1zm4.147 1.817.5.866-2.598 1.5-.5-.866zm.5 4.5-.5.866-2.598-1.5.5-.866zm-3.647 2.683h-1v-3h1zm-4.147-1.817-.5-.866 2.598-1.5.5.866zm-.5-4.5.5-.866 2.598 1.5-.5.866z" fill="#000"/></g></svg>